<svg width="22" height="16" viewBox="0 0 22 16" fill="none" xmlns="http://www.w3.org/2000/svg">
<path d="M1.70712 0.929199C2.64993 0.929199 3.41424 1.6935 3.41424 2.63632V13.4238C3.41424 14.3666 2.64993 15.1309 1.70712 15.1309C0.764303 15.1309 0 14.3666 0 13.4238V2.63632C0 1.6935 0.764303 0.929199 1.70712 0.929199Z" fill="#3E3E3E"/>
<path d="M19.997 0.929199C20.9399 0.929199 21.7042 1.6935 21.7042 2.63632V13.4238C21.7042 14.3666 20.9399 15.1309 19.997 15.1309C19.0542 15.1309 18.2899 14.3666 18.2899 13.4238V2.63632C18.2899 1.6935 19.0542 0.929199 19.997 0.929199Z" fill="#3E3E3E"/>
<path d="M12.5099 14.706C12.1065 14.706 11.7197 14.5458 11.4345 14.2606L7.11287 9.93894C5.94131 8.76736 5.94131 6.86788 7.11287 5.69631L11.4345 1.37463C11.7197 1.08943 12.1065 0.929199 12.5099 0.929199C13.8664 0.929199 14.5442 2.57059 13.5829 3.52768L11.3025 5.79825C10.1838 6.9121 10.1838 8.72315 11.3025 9.837L13.5829 12.1076C14.5442 13.0647 13.8664 14.706 12.5099 14.706Z" fill="#3E3E3E"/>
</svg>
